<svg width="271" height="56" viewBox="0 0 271 56" fill="none" xmlns="http://www.w3.org/2000/svg">
<path d="M26.3979 12.4297V43H20.1201V12.4297H26.3979ZM35.8042 12.4297V17.3638H10.8608V12.4297H35.8042ZM48.0869 37.877V27.7568C48.0869 27.029 47.9679 26.4061 47.73 25.8882C47.492 25.3563 47.1211 24.9434 46.6172 24.6494C46.1273 24.3555 45.4904 24.2085 44.7065 24.2085C44.0347 24.2085 43.4538 24.3275 42.9639 24.5654C42.474 24.7894 42.096 25.1183 41.8301 25.5522C41.5641 25.9722 41.4312 26.4691 41.4312 27.043H35.3843C35.3843 26.0771 35.6082 25.1603 36.0562 24.2925C36.5041 23.4246 37.1549 22.6618 38.0088 22.0039C38.8626 21.332 39.8774 20.8071 41.0532 20.4292C42.243 20.0513 43.5728 19.8623 45.0425 19.8623C46.8062 19.8623 48.3739 20.1562 49.7456 20.7441C51.1174 21.332 52.1951 22.2139 52.979 23.3896C53.7769 24.5654 54.1758 26.0352 54.1758 27.7988V37.52C54.1758 38.7658 54.2528 39.7876 54.4067 40.5854C54.5607 41.3693 54.7847 42.0552 55.0786 42.6431V43H48.9688C48.6748 42.3841 48.4508 41.6143 48.2969 40.6904C48.1569 39.7526 48.0869 38.8148 48.0869 37.877ZM48.8848 29.1636L48.9268 32.5859H45.5464C44.7485 32.5859 44.0557 32.6769 43.4678 32.8589C42.8799 33.0409 42.397 33.2998 42.019 33.6357C41.6411 33.9577 41.3612 34.3356 41.1792 34.7695C41.0112 35.2035 40.9272 35.6794 40.9272 36.1973C40.9272 36.7152 41.0462 37.1841 41.2842 37.604C41.5221 38.0099 41.8651 38.3319 42.313 38.5698C42.7609 38.7938 43.2858 38.9058 43.8877 38.9058C44.7975 38.9058 45.5884 38.7238 46.2603 38.3599C46.9321 37.9959 47.45 37.548 47.814 37.0161C48.1919 36.4842 48.3879 35.9803 48.4019 35.5044L49.9976 38.0659C49.7736 38.6398 49.4657 39.2347 49.0737 39.8506C48.6958 40.4665 48.2129 41.0474 47.625 41.5933C47.0371 42.1252 46.3302 42.5661 45.5044 42.916C44.6785 43.252 43.6987 43.4199 42.5649 43.4199C41.1232 43.4199 39.8145 43.133 38.6387 42.5591C37.4769 41.9712 36.5531 41.1663 35.8672 40.1445C35.1953 39.1087 34.8594 37.9329 34.8594 36.6172C34.8594 35.4274 35.0833 34.3706 35.5312 33.4468C35.9792 32.5229 36.637 31.7461 37.5049 31.1162C38.3867 30.4723 39.4855 29.9894 40.8013 29.6675C42.117 29.3315 43.6427 29.1636 45.3784 29.1636H48.8848ZM71.1196 36.7222C71.1196 36.2882 70.9937 35.8963 70.7417 35.5464C70.4897 35.1965 70.0208 34.8745 69.335 34.5806C68.6631 34.2726 67.6903 33.9927 66.4165 33.7407C65.2687 33.4888 64.1979 33.1738 63.2041 32.7959C62.2243 32.404 61.3704 31.9351 60.6426 31.3892C59.9287 30.8433 59.3688 30.1994 58.9629 29.4575C58.557 28.7017 58.354 27.8408 58.354 26.875C58.354 25.9232 58.557 25.0273 58.9629 24.1875C59.3828 23.3477 59.9777 22.6058 60.7476 21.9619C61.5314 21.304 62.4832 20.7931 63.603 20.4292C64.7368 20.0513 66.0106 19.8623 67.4243 19.8623C69.3979 19.8623 71.0916 20.1772 72.5054 20.8071C73.9331 21.437 75.0249 22.3049 75.7808 23.4106C76.5506 24.5024 76.9355 25.7482 76.9355 27.1479H70.8887C70.8887 26.5601 70.7627 26.0352 70.5107 25.5732C70.2728 25.0973 69.8949 24.7264 69.377 24.4604C68.873 24.1805 68.2152 24.0405 67.4033 24.0405C66.7314 24.0405 66.1506 24.1595 65.6606 24.3975C65.1707 24.6214 64.7928 24.9294 64.5269 25.3213C64.2749 25.6992 64.1489 26.1191 64.1489 26.5811C64.1489 26.931 64.2189 27.2459 64.3589 27.5259C64.5129 27.7918 64.7578 28.0368 65.0938 28.2607C65.4297 28.4847 65.8636 28.6947 66.3955 28.8906C66.9414 29.0726 67.6133 29.2406 68.4111 29.3945C70.0488 29.7305 71.5116 30.1714 72.7993 30.7173C74.0871 31.2492 75.1089 31.9771 75.8647 32.9009C76.6206 33.8107 76.9985 35.0075 76.9985 36.4912C76.9985 37.499 76.7746 38.4229 76.3267 39.2627C75.8787 40.1025 75.2349 40.8374 74.395 41.4673C73.5552 42.0832 72.5474 42.5661 71.3716 42.916C70.2098 43.252 68.901 43.4199 67.4453 43.4199C65.3317 43.4199 63.54 43.042 62.0703 42.2861C60.6146 41.5303 59.5088 40.5715 58.7529 39.4097C58.0111 38.2339 57.6401 37.0301 57.6401 35.7983H63.3721C63.4001 36.6242 63.61 37.2891 64.002 37.793C64.4079 38.2969 64.9188 38.6608 65.5347 38.8848C66.1646 39.1087 66.8434 39.2207 67.5713 39.2207C68.3551 39.2207 69.006 39.1157 69.5239 38.9058C70.0418 38.6818 70.4338 38.3879 70.6997 38.0239C70.9797 37.646 71.1196 37.2121 71.1196 36.7222ZM86.9717 10.729V43H80.9248V10.729H86.9717ZM101.291 20.2822L91.4229 31.5361L86.1318 36.8901L83.9272 32.5229L88.1265 27.1899L94.0264 20.2822H101.291ZM95.0132 43L88.2944 32.502L92.4727 28.8486L101.984 43H95.0132Z" fill="#F7F7F7"/>
<path d="M140.398 12.4297V43H134.12V12.4297H140.398ZM149.804 12.4297V17.3638H124.861V12.4297H149.804ZM157.594 25.2373V43H151.547V20.2822H157.237L157.594 25.2373ZM164.438 20.1353L164.333 25.7412C164.04 25.6992 163.683 25.6642 163.263 25.6362C162.857 25.5942 162.486 25.5732 162.15 25.5732C161.296 25.5732 160.554 25.6852 159.924 25.9092C159.308 26.1191 158.791 26.4341 158.371 26.854C157.965 27.2739 157.657 27.7848 157.447 28.3867C157.251 28.9886 157.139 29.6745 157.111 30.4443L155.893 30.0664C155.893 28.5967 156.04 27.2459 156.334 26.0142C156.628 24.7684 157.055 23.6836 157.615 22.7598C158.189 21.8359 158.889 21.1221 159.714 20.6182C160.54 20.1143 161.485 19.8623 162.549 19.8623C162.885 19.8623 163.228 19.8903 163.578 19.9463C163.928 19.9883 164.215 20.0513 164.438 20.1353ZM178.842 37.877V27.7568C178.842 27.029 178.723 26.4061 178.485 25.8882C178.247 25.3563 177.876 24.9434 177.372 24.6494C176.882 24.3555 176.245 24.2085 175.461 24.2085C174.79 24.2085 174.209 24.3275 173.719 24.5654C173.229 24.7894 172.851 25.1183 172.585 25.5522C172.319 25.9722 172.186 26.4691 172.186 27.043H166.139C166.139 26.0771 166.363 25.1603 166.811 24.2925C167.259 23.4246 167.91 22.6618 168.764 22.0039C169.618 21.332 170.632 20.8071 171.808 20.4292C172.998 20.0513 174.328 19.8623 175.797 19.8623C177.561 19.8623 179.129 20.1562 180.5 20.7441C181.872 21.332 182.95 22.2139 183.734 23.3896C184.532 24.5654 184.931 26.0352 184.931 27.7988V37.52C184.931 38.7658 185.008 39.7876 185.162 40.5854C185.316 41.3693 185.54 42.0552 185.833 42.6431V43H179.724C179.43 42.3841 179.206 41.6143 179.052 40.6904C178.912 39.7526 178.842 38.8148 178.842 37.877ZM179.64 29.1636L179.682 32.5859H176.301C175.503 32.5859 174.811 32.6769 174.223 32.8589C173.635 33.0409 173.152 33.2998 172.774 33.6357C172.396 33.9577 172.116 34.3356 171.934 34.7695C171.766 35.2035 171.682 35.6794 171.682 36.1973C171.682 36.7152 171.801 37.1841 172.039 37.604C172.277 38.0099 172.62 38.3319 173.068 38.5698C173.516 38.7938 174.041 38.9058 174.643 38.9058C175.552 38.9058 176.343 38.7238 177.015 38.3599C177.687 37.9959 178.205 37.548 178.569 37.0161C178.947 36.4842 179.143 35.9803 179.157 35.5044L180.752 38.0659C180.528 38.6398 180.221 39.2347 179.829 39.8506C179.451 40.4665 178.968 41.0474 178.38 41.5933C177.792 42.1252 177.085 42.5661 176.259 42.916C175.433 43.252 174.454 43.4199 173.32 43.4199C171.878 43.4199 170.569 43.133 169.394 42.5591C168.232 41.9712 167.308 41.1663 166.622 40.1445C165.95 39.1087 165.614 37.9329 165.614 36.6172C165.614 35.4274 165.838 34.3706 166.286 33.4468C166.734 32.5229 167.392 31.7461 168.26 31.1162C169.142 30.4723 170.24 29.9894 171.556 29.6675C172.872 29.3315 174.398 29.1636 176.133 29.1636H179.64ZM198.977 38.6958C199.719 38.6958 200.377 38.5558 200.951 38.2759C201.525 37.9819 201.972 37.576 202.294 37.0581C202.63 36.5262 202.805 35.9033 202.819 35.1895H208.509C208.495 36.7852 208.068 38.2059 207.229 39.4517C206.389 40.6834 205.262 41.6562 203.848 42.3701C202.434 43.07 200.853 43.4199 199.103 43.4199C197.339 43.4199 195.8 43.126 194.484 42.5381C193.182 41.9502 192.097 41.1383 191.229 40.1025C190.362 39.0527 189.711 37.835 189.277 36.4492C188.843 35.0495 188.626 33.5518 188.626 31.9561V31.3472C188.626 29.7375 188.843 28.2397 189.277 26.854C189.711 25.4543 190.362 24.2365 191.229 23.2007C192.097 22.1509 193.182 21.332 194.484 20.7441C195.786 20.1562 197.311 19.8623 199.061 19.8623C200.923 19.8623 202.553 20.2192 203.953 20.9331C205.367 21.647 206.473 22.6688 207.271 23.9985C208.082 25.3143 208.495 26.875 208.509 28.6807H202.819C202.805 27.9248 202.644 27.2389 202.336 26.623C202.042 26.0072 201.609 25.5173 201.035 25.1533C200.475 24.7754 199.782 24.5864 198.956 24.5864C198.074 24.5864 197.353 24.7754 196.793 25.1533C196.234 25.5173 195.8 26.0212 195.492 26.665C195.184 27.2949 194.967 28.0158 194.841 28.8276C194.729 29.6255 194.673 30.4653 194.673 31.3472V31.9561C194.673 32.8379 194.729 33.6847 194.841 34.4966C194.953 35.3084 195.163 36.0293 195.471 36.6592C195.793 37.2891 196.234 37.786 196.793 38.1499C197.353 38.5138 198.081 38.6958 198.977 38.6958ZM218.062 10.729V43H212.016V10.729H218.062ZM232.382 20.2822L222.514 31.5361L217.223 36.8901L215.018 32.5229L219.217 27.1899L225.117 20.2822H232.382ZM226.104 43L219.385 32.502L223.563 28.8486L233.075 43H226.104ZM245.021 43.4199C243.258 43.4199 241.676 43.14 240.276 42.5801C238.877 42.0062 237.687 41.2153 236.707 40.2075C235.741 39.1997 234.999 38.0309 234.481 36.7012C233.964 35.3574 233.705 33.9297 233.705 32.418V31.5781C233.705 29.8564 233.95 28.2817 234.439 26.854C234.929 25.4263 235.629 24.1875 236.539 23.1377C237.463 22.0879 238.583 21.283 239.898 20.7231C241.214 20.1493 242.698 19.8623 244.35 19.8623C245.959 19.8623 247.387 20.1283 248.633 20.6602C249.879 21.1921 250.921 21.9479 251.761 22.9277C252.615 23.9076 253.259 25.0833 253.693 26.4551C254.127 27.8128 254.344 29.3245 254.344 30.9902V33.5098H236.287V29.4785H248.402V29.0166C248.402 28.1768 248.248 27.4279 247.94 26.77C247.646 26.0981 247.198 25.5662 246.596 25.1743C245.994 24.7824 245.224 24.5864 244.287 24.5864C243.489 24.5864 242.803 24.7614 242.229 25.1113C241.655 25.4613 241.186 25.9512 240.822 26.5811C240.472 27.2109 240.206 27.9528 240.024 28.8066C239.856 29.6465 239.772 30.5703 239.772 31.5781V32.418C239.772 33.3278 239.898 34.1676 240.15 34.9375C240.416 35.7074 240.787 36.3722 241.263 36.9321C241.753 37.492 242.341 37.9259 243.027 38.2339C243.727 38.5418 244.518 38.6958 245.399 38.6958C246.491 38.6958 247.506 38.4858 248.444 38.0659C249.396 37.632 250.215 36.9811 250.9 36.1133L253.84 39.3047C253.364 39.9906 252.713 40.6484 251.887 41.2783C251.075 41.9082 250.096 42.4261 248.948 42.832C247.8 43.224 246.491 43.4199 245.021 43.4199ZM263.834 25.2373V43H257.787V20.2822H263.477L263.834 25.2373ZM270.679 20.1353L270.574 25.7412C270.28 25.6992 269.923 25.6642 269.503 25.6362C269.097 25.5942 268.726 25.5732 268.39 25.5732C267.536 25.5732 266.794 25.6852 266.165 25.9092C265.549 26.1191 265.031 26.4341 264.611 26.854C264.205 27.2739 263.897 27.7848 263.687 28.3867C263.491 28.9886 263.379 29.6745 263.351 30.4443L262.133 30.0664C262.133 28.5967 262.28 27.2459 262.574 26.0142C262.868 24.7684 263.295 23.6836 263.855 22.7598C264.429 21.8359 265.129 21.1221 265.955 20.6182C266.78 20.1143 267.725 19.8623 268.789 19.8623C269.125 19.8623 269.468 19.8903 269.818 19.9463C270.168 19.9883 270.455 20.0513 270.679 20.1353Z" fill="#F7F7F7"/>
<rect x="0.5" y="0.5" width="112" height="55" rx="7.5" stroke="#EBEBEB"/>
</svg>
